<svg xmlns="http://www.w3.org/2000/svg" xmlns:xlink="http://www.w3.org/1999/xlink" viewBox="0 0 1798.11 551.91"><defs><style>.cls-1,.cls-3{isolation:isolate;}.cls-1{filter:url(#luminosity-invert-noclip);}.cls-2{fill:#fff;}.cls-4{mask:url(#mask);}.cls-5{mix-blend-mode:darken;}.cls-6{fill:#29e552;}.cls-7{font-size:279.87px;}.cls-7,.cls-9{font-family:Comfortaa-Light, Comfortaa;}.cls-8{letter-spacing:-0.19em;}.cls-9{font-size:146.47px;fill:#666;}.cls-10,.cls-11{font-size:144.2px;}.cls-11{letter-spacing:-0.03em;}</style><filter id="luminosity-invert-noclip" x="0" y="0" width="747.49" height="307.1" filterUnits="userSpaceOnUse" color-interpolation-filters="sRGB"><feColorMatrix values="-1 0 0 0 1 0 -1 0 0 1 0 0 -1 0 1 0 0 0 1 0" result="invert"/><feFlood flood-color="#fff" result="bg"/><feBlend in="invert" in2="bg"/></filter><mask id="mask" x="0" y="0" width="747.49" height="307.1" maskUnits="userSpaceOnUse"><g class="cls-1"><rect class="cls-2" x="533.95" y="31.84" width="178.32" height="83.32"/></g></mask></defs><title>eduTechnicalLogo2</title><g class="cls-3"><g id="Layer_1" data-name="Layer 1"><g class="cls-4"><g class="cls-5"><path class="cls-6" d="M108.6,92.13q-45,0-76.79,31.48T0,199.61q0,44.53,31.8,76T108.6,307.1q40.53,0,70.78-25.91a11.5,11.5,0,0,0,3.1-8.25,11.75,11.75,0,0,0-3.49-8.54,11.51,11.51,0,0,0-8.53-3.55,11.64,11.64,0,0,0-7.56,2.69,81.3,81.3,0,0,1-54.3,19.77q-34.91,0-59.73-24.57Q30.25,240.3,24.43,211.51H205.17a11.67,11.67,0,0,0,8.53-3.45,11.42,11.42,0,0,0,3.49-8.45q0-44.53-31.8-76T108.6,92.13ZM24.43,187.71q5.82-28.79,24.43-47.22,24.82-24.57,59.73-24.57t59.73,24.57q18.81,18.62,24.24,47.22Z"/><path class="cls-6" d="M453.39,0a12,12,0,0,0-8.63,3.45,11.27,11.27,0,0,0-3.59,8.45V131.09l-7.56-7.49q-31.8-31.48-76.79-31.48T280,123.61q-31.81,31.48-31.8,76t31.8,76q31.8,31.48,76.79,31.48t76.79-31.48q31.8-31.48,31.8-76V11.9a11.43,11.43,0,0,0-3.49-8.45A11.67,11.67,0,0,0,453.39,0ZM416.54,258.73q-24.83,24.57-59.73,24.57t-59.73-24.57q-24.82-24.57-24.82-59.12t24.82-59.12q24.82-24.57,59.73-24.57t59.73,24.57q24.62,24.38,24.63,59.12T416.54,258.73Z"/><path class="cls-6" d="M711.06,96.9q-36.43-36.06-88-36.06t-88,36.06Q498.69,133,498.7,184T535.13,271q36.43,36.06,88,36.06t88-36.06Q747.49,235,747.49,184T711.06,96.9ZM691.51,251.69q-28.44,28.15-68.42,28.14t-68.42-28.14Q526.24,223.55,526.24,184t28.43-67.72q28.43-28.14,68.42-28.14t68.42,28.14q28.21,27.93,28.21,67.72T691.51,251.69Z"/></g></g></g><g id="Layer_2" data-name="Layer 2"><path class="cls-6" d="M691.34,116.09c-2-1.41-.08-8.59,4-13.07,5.81-6.45,15.88-7.13,17.14-4.79C714.52,102.09,695.12,118.76,691.34,116.09Z"/><path class="cls-6" d="M554.8,115.89c2-1.41.08-8.57-3.91-13-5.75-6.43-15.69-7.11-16.94-4.78C531.89,101.93,551.07,118.55,554.8,115.89Z"/><polygon class="cls-6" points="540.43 132.24 520.79 114.24 533.8 98.09 553.43 116.09 540.43 132.24"/><polygon class="cls-6" points="708.5 137.26 691.99 115.98 712.33 98.01 728.84 119.29 708.5 137.26"/></g><g id="Layer_4" data-name="Layer 4"><rect class="cls-6" x="608.06" y="43.51" width="31.47" height="132.93" rx="11.45" ry="11.45"/></g><g id="Layer_5" data-name="Layer 5"><text class="cls-7" transform="translate(740.42 287.2) scale(0.85 1)"><tspan class="cls-8">T</tspan><tspan x="131.46" y="0">echnical</tspan></text><text></text><text class="cls-9" transform="translate(34.4 460.36) scale(0.97 1)">B<tspan class="cls-10" x="80.1" y="0">ring power </tspan><tspan class="cls-11" x="891.25" y="0">t</tspan><tspan class="cls-10" x="943.43" y="0">o education</tspan></text></g></g></svg>