<?xml version="1.0" encoding="utf-8"?>
<!-- Generator: Adobe Illustrator 20.0.0, SVG Export Plug-In . SVG Version: 6.00 Build 0)  -->
<svg version="1.1" xmlns="http://www.w3.org/2000/svg" xmlns:xlink="http://www.w3.org/1999/xlink" x="0px" y="0px"
	 viewBox="0 0 960 560" style="enable-background:new 0 0 960 560;" xml:space="preserve">
<style type="text/css">
	.st0{filter:url(#Adobe_OpacityMaskFilter);}
	.st1{enable-background:new    ;}
	.st2{fill:#FFFFFF;}
	.st3{mask:url(#SVGID_1_);}
	.st4{fill:#29E552;}
	.st5{font-family:'Comfortaa-Light';}
	.st6{font-size:195.3183px;}
</style>
<g id="Layer_1">
	<defs>
		<filter id="Adobe_OpacityMaskFilter" filterUnits="userSpaceOnUse" x="94.5" y="25" width="747.5" height="307.1">
			
				<feColorMatrix  type="matrix" values="-1 0 0 0 1  0 -1 0 0 1  0 0 -1 0 1  0 0 0 1 0" color-interpolation-filters="sRGB" result="source"/>
			<feFlood  style="flood-color:white;flood-opacity:1" result="back"/>
			<feBlend  in="source" in2="back" mode="normal"/>
		</filter>
	</defs>
	<mask maskUnits="userSpaceOnUse" x="94.5" y="25" width="747.5" height="307.1" id="SVGID_1_">
		<g class="st0">
			<g class="st1">
				<g>
					<rect x="628.5" y="56.9" class="st2" width="178.3" height="83.3"/>
				</g>
			</g>
		</g>
	</mask>
	<g class="st3">
		<g>
			<g>
				<path class="st4" d="M203.1,117.2c-30,0-55.6,10.5-76.8,31.5c-21.2,21-31.8,46.3-31.8,76c0,29.7,10.6,55,31.8,76
					c21.2,21,46.8,31.5,76.8,31.5c27,0,50.6-8.6,70.8-25.9c2.1-2.2,3.1-4.9,3.1-8.3c0-3.3-1.2-6.2-3.5-8.5c-2.3-2.4-5.2-3.6-8.5-3.6
					c-2.8,0-5.4,0.9-7.6,2.7c-7.5,6.4-15.8,11.3-24.8,14.7c-9.1,3.4-18.9,5.1-29.5,5.1c-23.3,0-43.2-8.2-59.7-24.6
					c-12.4-12.3-20.6-28-24.4-47.2h180.7c3.4,0,6.2-1.2,8.5-3.5s3.5-5.1,3.5-8.4c0-29.7-10.6-55-31.8-76
					C258.7,127.7,233.1,117.2,203.1,117.2z M118.9,212.7c3.9-19.2,12-34.9,24.4-47.2c16.5-16.4,36.5-24.6,59.7-24.6
					s43.2,8.2,59.7,24.6c12.5,12.4,20.6,28.2,24.2,47.2H118.9z"/>
				<path class="st4" d="M547.9,25c-3.4,0-6.2,1.2-8.6,3.5c-2.4,2.3-3.6,5.1-3.6,8.4v119.2l-7.6-7.5c-21.2-21-46.8-31.5-76.8-31.5
					c-30,0-55.6,10.5-76.8,31.5c-21.2,21-31.8,46.3-31.8,76c0,29.7,10.6,55,31.8,76c21.2,21,46.8,31.5,76.8,31.5
					c30,0,55.6-10.5,76.8-31.5c21.2-21,31.8-46.3,31.8-76V36.9c0-3.3-1.2-6.1-3.5-8.4C554.1,26.2,551.3,25,547.9,25z M511.1,283.8
					c-16.6,16.4-36.5,24.6-59.7,24.6c-23.3,0-43.2-8.2-59.7-24.6c-16.5-16.4-24.8-36.1-24.8-59.1s8.3-42.7,24.8-59.1
					c16.5-16.4,36.5-24.6,59.7-24.6c23.3,0,43.2,8.2,59.7,24.6c16.4,16.3,24.6,36,24.6,59.1C535.7,247.8,527.5,267.5,511.1,283.8z"
					/>
				<path class="st4" d="M805.6,121.9c-24.3-24-53.6-36.1-88-36.1c-34.4,0-63.7,12-88,36.1c-24.3,24-36.4,53.1-36.4,87.1
					c0,34,12.1,63,36.4,87.1c24.3,24,53.6,36.1,88,36.1c34.4,0,63.7-12,88-36.1C829.9,272,842,243,842,209
					C842,175,829.9,146,805.6,121.9z M786,276.7c-19,18.8-41.8,28.1-68.4,28.1c-26.7,0-49.5-9.4-68.4-28.1
					c-19-18.8-28.4-41.3-28.4-67.7s9.5-49,28.4-67.7c19-18.8,41.8-28.1,68.4-28.1c26.7,0,49.5,9.4,68.4,28.1
					c18.8,18.6,28.2,41.2,28.2,67.7C814.2,235.5,804.8,258.1,786,276.7z"/>
			</g>
		</g>
	</g>
</g>
<g id="Layer_2">
	<g id="Layer_3">
	</g>
	<path class="st4" d="M785.9,141.1c-2-1.4-0.1-8.6,4-13.1c5.8-6.4,15.9-7.1,17.1-4.8C809,127.1,789.6,143.8,785.9,141.1z"/>
	<path class="st4" d="M649.3,140.9c2-1.4,0.1-8.6-3.9-13c-5.7-6.4-15.7-7.1-16.9-4.8C626.4,127,645.6,143.6,649.3,140.9z"/>
	<polygon class="st4" points="634.9,157.3 615.3,139.3 628.3,123.1 647.9,141.1 	"/>
	<polygon class="st4" points="803,162.3 786.5,141 806.8,123 823.4,144.3 	"/>
</g>
<g id="Layer_4">
	<path class="st4" d="M722.6,201.5H714c-6.3,0-11.4-5.2-11.4-11.4V80c0-6.3,5.2-11.4,11.4-11.4h8.6c6.3,0,11.4,5.2,11.4,11.4v110
		C734,196.3,728.9,201.5,722.6,201.5z"/>
</g>
<g id="Layer_5">
	<text transform="matrix(0.8894 0 0 1 88.7603 514)" class="st5 st6">Technical</text>
</g>
<g id="Layer_6">
</g>
</svg>
